<?xml version="1.0" encoding="UTF-8" standalone="no"?>
<svg
   xmlns:dc="http://purl.org/dc/elements/1.1/"
   xmlns:cc="http://creativecommons.org/ns#"
   xmlns:rdf="http://www.w3.org/1999/02/22-rdf-syntax-ns#"
   xmlns:svg="http://www.w3.org/2000/svg"
   xmlns="http://www.w3.org/2000/svg"
   viewBox="0 0 258.66666 258.66666"
   height="258.66666"
   width="258.66666"
   xml:space="preserve"
   id="svg2"
   version="1.1"><metadata
     id="metadata8"><rdf:RDF><cc:Work
         rdf:about=""><dc:format>image/svg+xml</dc:format><dc:type
           rdf:resource="http://purl.org/dc/dcmitype/StillImage" /></cc:Work></rdf:RDF></metadata><defs
     id="defs6" /><g
     transform="matrix(1.3333333,0,0,-1.3333333,0,258.66667)"
     id="g10"><g
       transform="scale(0.1)"
       id="g12"><path
         id="path14"
         style="fill:#ffffff;fill-opacity:1;fill-rule:evenodd;stroke:none"
         d="M 2.59766,1933.23 H 1930.16 V 5.66797 H 2.59766 V 1933.23" /><path
         id="path16"
         style="fill:#231f20;fill-opacity:1;fill-rule:evenodd;stroke:none"
         d="m 1806.49,799.996 c -78.2,-364.262 -403.14,-638.769 -790.2,-638.769 -445.145,0 -808.212,363.062 -808.212,808.207 0,445.146 363.067,808.216 808.212,808.216 384.58,0 707.85,-271.01 788.69,-631.81 -81.59,383.24 -423.15,672.23 -830.093,672.23 -467.403,0 -848.621,-381.21 -848.621,-848.617 0,-467.41 381.218,-848.629 848.621,-848.629 409.413,0 752.673,292.489 831.603,679.172" /><path
         id="path18"
         style="fill:#231f20;fill-opacity:1;fill-rule:evenodd;stroke:none"
         d="m 880.469,547.488 c 46.761,4.825 52.929,54.305 30.902,75.914 -18.137,17.797 -118.246,92.114 -144.367,121.332 -12.125,13.559 -28.559,20.215 -35.52,35.45 -16.007,35.062 -27.226,85.097 -6.914,121.023 3.676,6.5 6.035,3.586 3.223,-9.941 -15.945,-76.676 33.973,-139.297 44.961,-107.176 7.594,22.18 0.555,61.879 4.609,93.402 7.184,55.785 57.961,162.898 80.262,169.018 -34.398,63.71 40.34,113.59 39.43,169.51 -0.602,36.36 31.937,-44.71 64.644,-61.91 36.524,-19.19 76.671,36.18 133.651,64.28 16.12,7.95 36.8,17.08 35.41,23.86 -6.7,32.7 -74.85,-40.33 -135.717,-42.79 -27.785,-1.12 -38.09,5.45 -48.82,15.82 -32.446,31.35 3.304,5.18 51.535,13.91 21.432,3.88 28.632,7.45 51.382,16.64 22.75,9.2 48.75,22.8 74.49,29.8 17.92,4.87 16.42,18.33 9.45,22.37 -4.01,2.33 -9.95,2.11 -14.67,-6.04 -11.05,-19.1 -62.98,-30.13 -79.18,-35.08 -20.81,-6.37 -43.835,-12.32 -74.414,-11.08 -46.464,1.89 -35.632,23.18 -68.867,42.24 -9.75,5.59 -7.117,20.26 5.832,33.21 6.782,6.8 25.375,10.62 34.598,26.06 1.297,2.17 13.18,14.6 22.492,21.03 3.223,2.23 3.5,58.96 -25.605,60.13 -24.731,1 -31.762,-18.18 -30.723,-37.27 1.031,-19.09 11.152,-34.84 17.887,-34.77 12.98,0.13 0.828,-14.2 -6.282,-16.51 -10.796,-3.51 -25.605,42.51 -23.902,64.61 1.781,23.02 13.766,63.79 42.906,62.99 26.235,-0.71 45.246,-33.6 44.289,-90.34 -0.168,-9.62 42.539,4.59 56.789,-10.47 10.19,-10.76 -34.914,100.53 65.53,108.19 26.47,-5.07 51.88,-13.87 62.44,-74.71 -3.9,-6.33 6.59,-48.78 -9.74,-53.81 -19.94,-6.15 -32.24,0.89 -20.72,19.87 7.89,19.07 0.18,67.57 -40.16,64.66 -40.34,-2.91 -34.99,-74.5 -23.94,-75.92 11.07,-1.41 38.93,-21.18 58.36,-24.97 63.83,-12.42 16.94,-49.01 25.23,-93.29 9.36,-50.03 42.3,-36.82 71.91,-169.27 6.19,-8.07 30.72,-15.7 54.61,-117.464 21.5,-91.555 -8.93,-158.137 42.75,-152.66 11.65,1.23 28.66,4.488 36.06,30.422 19.35,67.805 -9.69,148.601 -39.01,203.122 -17.07,31.79 -33.15,53.44 -41.64,60.87 33.6,-19.86 76.55,-83.28 86.45,-130.367 13.02,-61.852 22.32,-88.035 2.62,-153.445 11.37,-5.68 39.65,-17.7 39.65,-31.196 -29.46,24.223 -119.66,28.52 -121.98,-29.394 -15.38,-0.309 -27.01,-1.567 -36.92,-13.325 -36.26,-43.011 -2.59,-129.437 -6.27,-175.781 -3.23,-40.781 -14.54,-81.179 -20.92,-122.148 -21.59,0.82 -19.48,16.633 -12.55,38.793 6.11,19.558 15.96,44.062 16.61,67.566 0.58,21.266 -1.74,34.555 -7.1,37.856 -5.37,3.3 -13.77,-3.391 -25.37,-22.075 -24.77,-39.894 -78.41,-57.429 -128.51,-63.707 -50.1,-6.285 -96.667,-1.304 -121.331,26.325 -8.43,9.445 -22.414,-2.575 -24.074,-5.086 -2.227,-3.36 8.164,-9.887 15.988,-24.254 11.438,-20.981 22.317,-52.821 -4.781,-67.348 0.324,73.859 -23.055,78.18 -46.953,123.324 z m -17.903,1.953 c 17.95,-28.257 81.211,-147.246 -29.679,-162.687 -37.09,-5.164 -96.805,21.578 -154.66,35.734 -51.981,12.719 -104.77,20.242 -134.313,28.547 -17.789,4.996 -25.223,11.379 -26.769,18.832 -4.102,19.746 21.597,47.449 22.898,70.828 1.301,23.387 -8.531,35.539 -16.578,54.614 -8.067,19.125 -10.164,33.441 -3.715,41.648 5.023,6.379 15.223,9.043 31.816,7.418 21.036,-2.074 46.434,2.238 60.086,10.563 22.989,14.027 33.805,42.761 23.461,77.386 0,-33.883 -11.109,-46.711 -38.965,-62.207 -26.25,-14.609 -66.769,-2.793 -85.39,-18.949 -22.41,-19.449 7.996,-69.648 5.508,-106.496 -1.911,-28.313 -31.461,-60.219 -18.282,-88.613 13.258,-28.567 75.075,-31.688 139.528,-45.157 91.613,-19.172 145.035,-52.527 187.359,-54.101 61.754,-2.293 71.215,61.101 168.18,61.957 28.269,1.484 55.929,2.367 83.559,2.719 31.32,0.39 62.59,0.132 94.7,-0.641 64.52,-1.563 42.33,-35.234 84.2,-56.742 35.32,-18.149 98.82,-10.989 114.02,3.508 20.56,19.605 75.76,66.781 118.04,88.086 52.73,26.574 176.51,72.296 86.64,128.058 -20.94,12.992 -70.46,26.734 -74.62,121.789 -18.75,-16.656 -16.59,-105.238 35.74,-122.812 58.45,-19.625 94.96,-52.504 -13.7,-89.66 -71.93,-24.602 -84.16,-32.18 -141.11,-79.583 -57.62,-47.968 -143.14,-28.914 -128.21,72.079 7.78,52.617 12.26,96.093 -0.83,141.824 -6.39,22.34 -9.58,50.996 -5.21,71.101 8.5,39.082 29.66,50.848 50.39,13.325 13.02,-23.551 17.57,-51.086 64.17,-53.321 73.21,-3.508 87.71,70.746 111.1,74.121 15.61,2.25 31.21,46.418 19.32,117.868 -12.73,76.492 -57.74,197.273 -115.45,258.523 -47.97,50.9 -78.21,95.53 -97.22,159.23 -15.97,53.52 -24.9,105.61 -21.61,155.42 4.27,64.53 -31.52,154.32 -88.49,196.57 -35.66,26.44 -91.58,40.61 -142.2,40.05 -28.385,-0.31 -55.104,-4.45 -75.635,-15.59 -84.497,-45.87 -96.293,-111.39 -95.032,-186.17 1.188,-70.25 3.578,-150.4 11.559,-226.66 -9.449,-35.01 -58.641,-101.39 -90.133,-141.78 -42.355,-41.84 -63.738,-122.691 -91.144,-193.328 -14.618,-37.66 -39.239,-54.664 -41.309,-103.086 -0.578,-13.543 -0.113,-48.57 12.832,-38.554 49.523,38.312 111.52,-58.274 205.148,-205.661 z M 1119.65,1561.96 c -2.67,-7.99 -13.66,-14.64 -6.69,-20.23 6.99,-5.59 10.99,7.82 25.03,12.84 3.62,1.3 20.5,-0.54 23.6,7.48 1.37,3.5 -8.69,7.49 -14.68,13.22 -6,5.71 -11.86,10.81 -17.5,10.45 -14.54,-0.93 -7.39,-16.69 -9.76,-23.76 z m 86.08,-291.28 c 5.23,5.49 7.93,-9.47 21.98,-18.35 11.15,-7.04 22,-1.82 24.82,-16.07 2.01,-10.22 -4.37,-21.31 -12.93,-19.86 -14.92,2.51 -49.33,38.04 -33.87,54.28 z m -232.324,89.89 c -23.16,1.72 -24.75,-15.02 -17.078,-14.74 7.824,0.28 3.016,13.25 17.078,14.74 z m -39.73,42.78 c 2.742,0.6 6.629,-4.06 5.426,-10.61 -1.684,-9.07 -0.954,-14.76 5.339,-14.79 1.032,0 2.157,0.19 2.551,2.56 3.02,18.08 -6.379,31.36 -10.222,32.35 -8.856,2.25 -7.778,-10.51 -3.094,-9.51 z M 1102.3,1411 c 5.88,-1.75 11.54,-11.93 12.77,-22.91 0.12,-1.03 7.68,1.57 7.75,3.98 0.47,17.69 -14.63,26 -18.58,25.65 -9.1,-0.83 -6.53,-5.34 -1.94,-6.72 z m -86.44,-52.59 c 21.07,9.76 28.44,-5.36 21.17,-7.79 -7.42,-2.49 -7.48,11.34 -21.17,7.79 z M 761.438,999.492 c -9.961,1.208 2.898,8.678 8.347,18.098 5.992,10.36 4.836,23.29 11.125,21.38 6.293,-1.91 2.793,-9.14 -1.519,-21.02 -3.676,-10.11 -14.282,-18.907 -17.953,-18.458" /></g></g></svg>